<mxfile host="app.diagrams.net" agent="Mozilla/5.0 (Windows NT 10.0; Win64; x64) AppleWebKit/537.36 (KHTML, like Gecko) Chrome/133.0.0.0 Safari/537.36" version="26.0.16">
  <diagram name="第 1 页" id="dgCXswJMyNH66oMm1s7y">
    <mxGraphModel dx="2327" dy="757" grid="1" gridSize="10" guides="1" tooltips="1" connect="1" arrows="1" fold="1" page="1" pageScale="1" pageWidth="827" pageHeight="1169" math="0" shadow="0">
      <root>
        <mxCell id="0" />
        <mxCell id="1" parent="0" />
        <mxCell id="yq2jpOTw-nYhbNa2DPT_-23" value="" style="rounded=0;whiteSpace=wrap;html=1;" vertex="1" parent="1">
          <mxGeometry x="-70" y="189" width="1110" height="500" as="geometry" />
        </mxCell>
        <mxCell id="yq2jpOTw-nYhbNa2DPT_-24" value="" style="rounded=0;whiteSpace=wrap;html=1;dashed=1;dashPattern=8 8;fillColor=none;strokeColor=#FF6666;strokeWidth=2;" vertex="1" parent="1">
          <mxGeometry x="-40" y="294" width="630" height="290" as="geometry" />
        </mxCell>
        <mxCell id="yq2jpOTw-nYhbNa2DPT_-18" style="edgeStyle=orthogonalEdgeStyle;rounded=0;orthogonalLoop=1;jettySize=auto;html=1;entryX=0;entryY=0.5;entryDx=0;entryDy=0;exitX=0.5;exitY=1;exitDx=0;exitDy=0;" edge="1" parent="1" source="yq2jpOTw-nYhbNa2DPT_-1" target="yq2jpOTw-nYhbNa2DPT_-6">
          <mxGeometry relative="1" as="geometry" />
        </mxCell>
        <mxCell id="yq2jpOTw-nYhbNa2DPT_-22" style="edgeStyle=orthogonalEdgeStyle;rounded=0;orthogonalLoop=1;jettySize=auto;html=1;" edge="1" parent="1" source="yq2jpOTw-nYhbNa2DPT_-1" target="yq2jpOTw-nYhbNa2DPT_-2">
          <mxGeometry relative="1" as="geometry" />
        </mxCell>
        <mxCell id="yq2jpOTw-nYhbNa2DPT_-1" value="&lt;font style=&quot;font-size: 16px;&quot;&gt;产品需求&lt;/font&gt;" style="rounded=0;whiteSpace=wrap;html=1;" vertex="1" parent="1">
          <mxGeometry x="-10" y="210" width="120" height="40" as="geometry" />
        </mxCell>
        <mxCell id="yq2jpOTw-nYhbNa2DPT_-19" value="" style="edgeStyle=orthogonalEdgeStyle;rounded=0;orthogonalLoop=1;jettySize=auto;html=1;" edge="1" parent="1" source="yq2jpOTw-nYhbNa2DPT_-2" target="yq2jpOTw-nYhbNa2DPT_-3">
          <mxGeometry relative="1" as="geometry" />
        </mxCell>
        <mxCell id="yq2jpOTw-nYhbNa2DPT_-2" value="&lt;font style=&quot;font-size: 16px;&quot;&gt;归档基线&lt;/font&gt;" style="rounded=0;whiteSpace=wrap;html=1;" vertex="1" parent="1">
          <mxGeometry x="430" y="210" width="120" height="40" as="geometry" />
        </mxCell>
        <mxCell id="yq2jpOTw-nYhbNa2DPT_-20" value="" style="edgeStyle=orthogonalEdgeStyle;rounded=0;orthogonalLoop=1;jettySize=auto;html=1;" edge="1" parent="1" source="yq2jpOTw-nYhbNa2DPT_-3" target="yq2jpOTw-nYhbNa2DPT_-4">
          <mxGeometry relative="1" as="geometry" />
        </mxCell>
        <mxCell id="yq2jpOTw-nYhbNa2DPT_-3" value="&lt;font style=&quot;font-size: 16px;&quot;&gt;镜像制作&lt;/font&gt;" style="rounded=0;whiteSpace=wrap;html=1;" vertex="1" parent="1">
          <mxGeometry x="590" y="210" width="120" height="40" as="geometry" />
        </mxCell>
        <mxCell id="yq2jpOTw-nYhbNa2DPT_-21" value="" style="edgeStyle=orthogonalEdgeStyle;rounded=0;orthogonalLoop=1;jettySize=auto;html=1;" edge="1" parent="1" source="yq2jpOTw-nYhbNa2DPT_-4" target="yq2jpOTw-nYhbNa2DPT_-5">
          <mxGeometry relative="1" as="geometry" />
        </mxCell>
        <mxCell id="yq2jpOTw-nYhbNa2DPT_-4" value="&lt;font style=&quot;font-size: 16px;&quot;&gt;集成验证&lt;/font&gt;" style="rounded=0;whiteSpace=wrap;html=1;" vertex="1" parent="1">
          <mxGeometry x="750" y="210" width="120" height="40" as="geometry" />
        </mxCell>
        <mxCell id="yq2jpOTw-nYhbNa2DPT_-5" value="&lt;font style=&quot;font-size: 16px;&quot;&gt;评审发布&lt;/font&gt;" style="rounded=0;whiteSpace=wrap;html=1;" vertex="1" parent="1">
          <mxGeometry x="910" y="210" width="120" height="40" as="geometry" />
        </mxCell>
        <mxCell id="yq2jpOTw-nYhbNa2DPT_-16" style="edgeStyle=orthogonalEdgeStyle;rounded=0;orthogonalLoop=1;jettySize=auto;html=1;entryX=0;entryY=0.5;entryDx=0;entryDy=0;" edge="1" parent="1" source="yq2jpOTw-nYhbNa2DPT_-6" target="yq2jpOTw-nYhbNa2DPT_-7">
          <mxGeometry relative="1" as="geometry" />
        </mxCell>
        <mxCell id="yq2jpOTw-nYhbNa2DPT_-6" value="&lt;font style=&quot;font-size: 16px;&quot;&gt;OS侧需求变动&lt;/font&gt;" style="rounded=0;whiteSpace=wrap;html=1;fillColor=#f8cecc;strokeColor=#b85450;" vertex="1" parent="1">
          <mxGeometry x="110" y="310" width="120" height="40" as="geometry" />
        </mxCell>
        <mxCell id="yq2jpOTw-nYhbNa2DPT_-26" value="" style="edgeStyle=orthogonalEdgeStyle;rounded=0;orthogonalLoop=1;jettySize=auto;html=1;" edge="1" parent="1" source="yq2jpOTw-nYhbNa2DPT_-7" target="yq2jpOTw-nYhbNa2DPT_-25">
          <mxGeometry relative="1" as="geometry" />
        </mxCell>
        <mxCell id="yq2jpOTw-nYhbNa2DPT_-7" value="&lt;font style=&quot;font-size: 16px;&quot;&gt;需求开发&lt;/font&gt;" style="rounded=0;whiteSpace=wrap;html=1;fillColor=#ffe6cc;strokeColor=#d79b00;" vertex="1" parent="1">
          <mxGeometry x="270" y="310" width="120" height="40" as="geometry" />
        </mxCell>
        <mxCell id="yq2jpOTw-nYhbNa2DPT_-12" style="edgeStyle=orthogonalEdgeStyle;rounded=0;orthogonalLoop=1;jettySize=auto;html=1;entryX=0.5;entryY=1;entryDx=0;entryDy=0;" edge="1" parent="1" source="yq2jpOTw-nYhbNa2DPT_-9" target="yq2jpOTw-nYhbNa2DPT_-6">
          <mxGeometry relative="1" as="geometry" />
        </mxCell>
        <mxCell id="yq2jpOTw-nYhbNa2DPT_-9" value="&lt;font style=&quot;font-size: 16px;&quot;&gt;灵骏线上问题&lt;/font&gt;" style="rounded=0;whiteSpace=wrap;html=1;fillColor=#ffe6cc;strokeColor=#d79b00;" vertex="1" parent="1">
          <mxGeometry x="-20" y="378" width="120" height="40" as="geometry" />
        </mxCell>
        <mxCell id="yq2jpOTw-nYhbNa2DPT_-15" style="edgeStyle=orthogonalEdgeStyle;rounded=0;orthogonalLoop=1;jettySize=auto;html=1;entryX=0.5;entryY=1;entryDx=0;entryDy=0;" edge="1" parent="1" source="yq2jpOTw-nYhbNa2DPT_-10" target="yq2jpOTw-nYhbNa2DPT_-6">
          <mxGeometry relative="1" as="geometry" />
        </mxCell>
        <mxCell id="yq2jpOTw-nYhbNa2DPT_-10" value="&lt;font style=&quot;font-size: 16px;&quot;&gt;alinux3版本bugfix&lt;/font&gt;" style="rounded=0;whiteSpace=wrap;html=1;fillColor=#ffe6cc;strokeColor=#d79b00;" vertex="1" parent="1">
          <mxGeometry x="-20" y="448" width="120" height="40" as="geometry" />
        </mxCell>
        <mxCell id="yq2jpOTw-nYhbNa2DPT_-14" style="edgeStyle=orthogonalEdgeStyle;rounded=0;orthogonalLoop=1;jettySize=auto;html=1;" edge="1" parent="1" source="yq2jpOTw-nYhbNa2DPT_-11">
          <mxGeometry relative="1" as="geometry">
            <mxPoint x="170" y="350" as="targetPoint" />
          </mxGeometry>
        </mxCell>
        <mxCell id="yq2jpOTw-nYhbNa2DPT_-11" value="&lt;font style=&quot;font-size: 16px;&quot;&gt;alinux3周边产品bugfix&lt;/font&gt;" style="rounded=0;whiteSpace=wrap;html=1;fillColor=#ffe6cc;strokeColor=#d79b00;" vertex="1" parent="1">
          <mxGeometry x="-20" y="518" width="120" height="40" as="geometry" />
        </mxCell>
        <mxCell id="yq2jpOTw-nYhbNa2DPT_-28" style="edgeStyle=orthogonalEdgeStyle;rounded=0;orthogonalLoop=1;jettySize=auto;html=1;entryX=0.5;entryY=1;entryDx=0;entryDy=0;" edge="1" parent="1" source="yq2jpOTw-nYhbNa2DPT_-25" target="yq2jpOTw-nYhbNa2DPT_-2">
          <mxGeometry relative="1" as="geometry" />
        </mxCell>
        <mxCell id="yq2jpOTw-nYhbNa2DPT_-25" value="&lt;font style=&quot;font-size: 16px;&quot;&gt;测试验证&lt;/font&gt;" style="rounded=0;whiteSpace=wrap;html=1;fillColor=#ffe6cc;strokeColor=#d79b00;" vertex="1" parent="1">
          <mxGeometry x="430" y="310" width="120" height="40" as="geometry" />
        </mxCell>
        <mxCell id="yq2jpOTw-nYhbNa2DPT_-29" value="&lt;ul&gt;&lt;li&gt;&lt;font style=&quot;font-size: 16px;&quot;&gt;需求/场景分析&lt;/font&gt;&lt;/li&gt;&lt;li&gt;&lt;span style=&quot;font-size: 16px;&quot;&gt;方案设计/实现&lt;/span&gt;&lt;/li&gt;&lt;li&gt;&lt;font style=&quot;font-size: 16px;&quot;&gt;测试用例构建&lt;/font&gt;&lt;/li&gt;&lt;li&gt;&lt;font style=&quot;font-size: 16px;&quot;&gt;测试验证、报告输出&lt;/font&gt;&lt;/li&gt;&lt;/ul&gt;" style="text;html=1;align=left;verticalAlign=middle;whiteSpace=wrap;rounded=0;" vertex="1" parent="1">
          <mxGeometry x="270" y="418" width="250" height="100" as="geometry" />
        </mxCell>
      </root>
    </mxGraphModel>
  </diagram>
</mxfile>
